<?xml version="1.0" encoding="UTF-8" standalone="no"?>
<!-- Generator: Adobe Illustrator 25.4.1, SVG Export Plug-In . SVG Version: 6.00 Build 0)  -->

<svg
   version="1.1"
   id="Layer_1"
   x="0px"
   y="0px"
   viewBox="0 0 2000 2000"
   style="enable-background:new 0 0 2000 2000;"
   xml:space="preserve"
   sodipodi:docname="1_SVG.svg"
   inkscape:version="1.2.2 (b0a84865, 2022-12-01)"
   inkscape:export-filename="1_SVG.png"
   inkscape:export-xdpi="96"
   inkscape:export-ydpi="96"
   xmlns:inkscape="http://www.inkscape.org/namespaces/inkscape"
   xmlns:sodipodi="http://sodipodi.sourceforge.net/DTD/sodipodi-0.dtd"
   xmlns="http://www.w3.org/2000/svg"
   xmlns:svg="http://www.w3.org/2000/svg"><defs
   id="defs93" /><sodipodi:namedview
   id="namedview91"
   pagecolor="#ffffff"
   bordercolor="#000000"
   borderopacity="0.25"
   inkscape:showpageshadow="2"
   inkscape:pageopacity="0.0"
   inkscape:pagecheckerboard="0"
   inkscape:deskcolor="#d1d1d1"
   showgrid="false"
   inkscape:zoom="0.25519995"
   inkscape:cx="389.89035"
   inkscape:cy="1036.4422"
   inkscape:window-width="1470"
   inkscape:window-height="891"
   inkscape:window-x="0"
   inkscape:window-y="37"
   inkscape:window-maximized="1"
   inkscape:current-layer="Layer_1" />
<style
   type="text/css"
   id="style2">
	.st0{fill:#FFFFFF;stroke:#000000;stroke-miterlimit:10;}
	.st1{fill:#A0292D;}
	.st2{fill:#D8212E;}
	.st3{fill:#FFFFFF;}
</style>
<g
   id="g88"
   transform="matrix(3.43602,0,0,3.43602,-2436.0322,-2436.0443)">
	<g
   id="g82">
		<g
   id="g80">
			<g
   id="g78">
				<g
   id="g36">
					<g
   id="g10">
						<g
   id="g8">
							<g
   id="g6">
								
									<rect
   x="923.03998"
   y="856.08002"
   transform="matrix(0.7015,-0.7127,0.7127,0.7015,-361.5182,934.7068)"
   class="st1"
   width="24.049999"
   height="85.699997"
   id="rect4" />
							</g>
						</g>
					</g>
					<g
   id="g18">
						<g
   id="g16">
							<g
   id="g14">
								
									<rect
   x="985.82001"
   y="858.88"
   transform="matrix(0.5311,-0.8473,0.8473,0.5311,-247.9193,1293.8376)"
   class="st1"
   width="118.34"
   height="24.049999"
   id="rect12" />
							</g>
						</g>
					</g>
					<g
   id="g26">
						<g
   id="g24">
							<g
   id="g22">
								<circle
   class="st1"
   cx="904.53003"
   cy="868.85999"
   r="40.369999"
   id="circle20" />
							</g>
						</g>
					</g>
					<g
   id="g34">
						<g
   id="g32">
							<g
   id="g30">
								<circle
   class="st1"
   cx="1076.41"
   cy="820.77002"
   r="40.369999"
   id="circle28" />
							</g>
						</g>
					</g>
				</g>
				<g
   id="g44">
					<g
   id="g42">
						<g
   id="g40">
							<circle
   class="st1"
   cx="990.03003"
   cy="940.56"
   r="41.560001"
   id="circle38" />
						</g>
					</g>
				</g>
				<g
   id="g52">
					<g
   id="g50">
						<g
   id="g48">
							<path
   class="st1"
   d="m 1200.41,1049.94 c -2.68,-9.65 -6.73,-19 -12.09,-27.84 -26.94,-44.92 -85.9,-78.17 -156.94,-85.81 -10.22,-1.11 -20.71,-1.68 -31.39,-1.68 -17.8,0 -35.06,1.59 -51.5,4.57 -87.79,15.93 -152.61,71.61 -152.61,137.91 0,78.68 91.37,142.51 204.11,142.51 24.83,0 48.64,-3.13 70.65,-8.78 12.93,-3.34 25.22,-7.55 36.8,-12.57 58.03,-25.13 96.66,-70.02 96.66,-121.16 0.01,-9.29 -1.25,-18.37 -3.69,-27.15 z m -131.86,29.02 -105.47,60.91 v -122.39 z m 22.94,60.1 c 0,-12.06 9.8,-21.86 21.89,-21.86 3.19,0 6.22,0.69 8.96,1.95 7.61,3.4 12.9,11.03 12.9,19.9 0,12.09 -9.8,21.89 -21.86,21.89 -8.87,0 -16.51,-5.29 -19.93,-12.87 -1.27,-2.76 -1.96,-5.8 -1.96,-9.01 z"
   id="path46" />
						</g>
					</g>
				</g>
				<g
   id="g60">
					<g
   id="g58">
						<g
   id="g56">
							<path
   class="st2"
   d="m 1200.41,1049.94 c -2.68,-9.65 -6.73,-19 -12.09,-27.84 -2.56,-2.04 -5.02,-3.82 -7.31,-5.41 -38.57,-26.94 -93.26,-42.36 -149.93,-42.36 -5.89,0 -11.76,0.18 -17.56,0.51 h -0.03 c -13.02,0.72 -25.83,2.25 -38.27,4.54 -35.72,6.58 -68.46,19.42 -94.1,37.31 -18.52,12.96 -49.64,40.17 -49.64,77.15 0,36.92 31.12,64.19 49.64,77.09 38.6,26.97 93.26,42.42 149.96,42.42 13.35,0 26.61,-0.84 39.57,-2.53 12.93,-3.34 25.22,-7.55 36.8,-12.57 58.03,-25.13 96.66,-70.02 96.66,-121.16 0,-9.29 -1.26,-18.37 -3.7,-27.15 z m -237.33,-32.47 105.47,61.48 -105.47,60.91 z m 128.41,121.59 c 0,-12.06 9.8,-21.86 21.89,-21.86 3.19,0 6.22,0.69 8.96,1.95 7.61,3.4 12.9,11.03 12.9,19.9 0,12.09 -9.8,21.89 -21.86,21.89 -8.87,0 -16.51,-5.29 -19.93,-12.87 -1.27,-2.76 -1.96,-5.8 -1.96,-9.01 z"
   id="path54" />
						</g>
					</g>
				</g>
				<g
   id="g68">
					<g
   id="g66">
						<g
   id="g64">
							<polygon
   class="st1"
   points="1094.52,1094.08 963.08,1169.96 963.08,1139.87 1068.55,1078.96 "
   id="polygon62" />
						</g>
					</g>
				</g>
				<g
   id="g76">
					<g
   id="g74">
						<g
   id="g72">
							<path
   class="st1"
   d="m 1147.23,1146 c 0,14.85 -12.06,26.91 -26.94,26.91 -14.19,0 -25.8,-10.94 -26.85,-24.83 3.43,7.58 11.06,12.87 19.93,12.87 12.06,0 21.86,-9.8 21.86,-21.89 0,-8.87 -5.29,-16.51 -12.9,-19.9 13.92,1.01 24.9,12.65 24.9,26.84 z"
   id="path70" />
						</g>
					</g>
				</g>
			</g>
		</g>
	</g>
	<g
   id="g86">
		<path
   class="st1"
   d="m 1000,1286.72 c -31.33,0 -61.94,-3.93 -91,-11.68 l -5.1,-1.41 c -106.41,-30.27 -175.12,-107.4 -175.12,-196.53 0,-58.03 30.46,-113.02 83.98,-152.34 -10.31,-16.8 -15.71,-35.92 -15.71,-55.88 0,-59.27 48.22,-107.49 107.49,-107.49 25.96,0 50.49,9.21 69.78,25.79 14.22,-43.29 54.97,-73.88 102.1,-73.88 59.27,0 107.49,48.22 107.49,107.49 0,31.05 -13.1,59.84 -35.79,80.06 37.86,18.8 68.84,44.62 90.35,75.43 l 1.1,0.88 6.36,10.51 c 6.14,10.16 11.3,21.04 15.33,32.31 0.03,0.05 0.15,0.36 0.25,0.67 1.29,3.63 2.52,7.53 3.58,11.38 4.08,14.68 6.14,29.85 6.14,45.08 0,77.24 -51.26,145.56 -137.1,182.75 -14.77,6.41 -30.48,11.78 -46.7,15.97 l -4.61,1.11 c -26.86,6.48 -54.72,9.78 -82.82,9.78 z M 904.53,783.03 c -47.33,0 -85.84,38.51 -85.84,85.84 0,18.95 6.09,36.94 17.63,52.02 l 6.99,9.15 -9.57,6.42 c -52.95,35.53 -83.33,86.79 -83.33,140.64 0,79.19 62.54,148.15 159.33,175.69 l 4.93,1.37 c 27.14,7.24 55.87,10.92 85.32,10.92 26.57,0 52.9,-3.13 78.25,-9.32 l 3.77,-0.91 c 15.12,-3.91 29.76,-8.91 43.49,-14.87 77.69,-33.66 124.06,-94.54 124.06,-162.89 0,-13.28 -1.8,-26.5 -5.35,-39.3 v -0.01 c -0.93,-3.37 -2.01,-6.77 -3.19,-10.12 l -0.16,-0.4 c -3.52,-9.85 -8.01,-19.34 -13.36,-28.23 l -0.41,-0.69 -4.06,-6.7 -0.59,-0.47 -0.91,-1.33 c -22.26,-32.45 -56.4,-59.01 -98.7,-76.79 l -19.38,-8.15 17.89,-11.04 c 25.62,-15.81 40.91,-43.14 40.91,-73.1 0,-47.33 -38.51,-85.84 -85.84,-85.84 -43.39,0 -80.01,32.47 -85.19,75.52 l -3.12,25.88 -16.14,-20.47 c -16.44,-20.86 -41.02,-32.82 -67.43,-32.82 z"
   id="path84" />
	</g>
</g>
<path
   style="fill:#ffffff;stroke-width:4.15556"
   d="m 874.50182,1269.391 v -206.2823 l 17.66116,10.6048 c 9.71364,5.8328 89.17229,52.2215 176.57482,103.0859 87.4025,50.8644 158.8884,93.4158 158.8575,94.5586 -0.048,1.8009 -340.1289,199.2244 -349.56583,202.9301 -1.94021,0.7619 -3.52765,-91.4418 -3.52765,-204.8971 z"
   id="path384" /><path
   style="fill:#ffffff;stroke-width:4.15556"
   d="m 1355.8429,1541.3584 c -42.8899,-22.6563 -51.568,-78.7548 -17.5946,-113.7361 33.3791,-34.3695 84.4618,-27.9503 113.1034,14.2128 13.0462,19.2055 11.6469,57.7507 -2.8351,78.0888 -19.9361,27.9977 -61.8829,37.6995 -92.6737,21.4345 z"
   id="path386" /><path
   style="fill:#ffffff;stroke-width:4.15556"
   d="m 895.27965,1904.5703 c -100.48514,-12.0002 -172.93343,-27.141 -245.68186,-51.3448 -265.19462,-88.2316 -448.32263,-268.4625 -494.38643,-486.5653 -11.65281,-55.1738 -12.52463,-142.9021 -1.91758,-192.958 31.25016,-147.4727 114.04975,-269.9964 250.80176,-371.12685 18.97216,-14.03023 40.0097,-28.76723 46.7501,-32.7489 6.74039,-3.98165 12.25526,-8.27871 12.25526,-9.54902 0,-1.27032 -9.61089,-15.35968 -21.35752,-31.30965 -44.95741,-61.04471 -64.21994,-122.72057 -60.79654,-194.66158 5.66915,-119.13361 84.46289,-222.46057 200.58766,-263.04262 29.98605,-10.47921 38.7432,-11.62616 89.34465,-11.70182 47.85236,-0.0715 60.37674,1.34271 85.18907,9.61948 67.2349,22.42786 106.85226,51.98667 162.36072,121.13862 22.04128,27.45881 40.59924,49.92512 41.23991,49.92512 0.64071,0 3.42049,-19.16754 6.17728,-42.59454 7.41662,-63.02468 15.9843,-101.45348 29.03734,-130.24133 35.36363,-77.99288 99.25313,-135.40973 180.89683,-162.57042 29.0752,-9.67257 40.0196,-11.071269 87.2669,-11.152897 48.4939,-0.08373 57.4244,1.090184 87.2668,11.471607 159.9145,55.63021 241.0574,216.45311 188.6896,373.97695 -21.1399,63.58948 -69.418,120.88517 -136.7484,162.29085 -21.711,13.35146 -41.8797,26.19314 -44.8195,28.53713 -3.9425,3.14356 9.1416,10.46742 49.8668,27.91301 67.8706,29.07396 90.5168,40.51922 136.7039,69.08939 135.9603,84.10165 240.2985,207.06644 283.4189,334.01507 20.3427,59.8903 25.7447,96.2539 25.3105,170.3782 -0.3666,62.5946 -1.5217,72.8333 -13.2595,117.5505 -24.4033,92.9678 -72.8622,177.6303 -143.94,251.4774 -110.2002,114.4939 -250.3838,191.8096 -426.2558,235.0938 -96.3724,23.7184 -135.2266,28.2573 -253.4894,29.6129 -58.28186,0.668 -112.51198,0.4331 -120.51145,-0.5223 z m 227.22725,-155.4837 c 300.0869,-39.8377 529.1893,-204.2054 573.0601,-411.1379 7.3845,-34.8324 7.3845,-110.8158 0,-145.6481 -26.9175,-126.9659 -129.8493,-246.66103 -276.7221,-321.78825 -82.9988,-42.455 -157.0442,-66.59169 -255.154,-83.17305 l -53.6451,-9.06645 -4.9395,-18.3747 c -2.7167,-10.10609 -5.6915,-20.62905 -6.6106,-23.38436 -0.9191,-2.7553 27.9797,-52.31043 64.2194,-110.12248 l 65.8906,-105.11282 37.9985,-0.13048 c 32.7596,-0.11261 40.8746,-1.63089 58.8588,-11.01308 101.8172,-53.11736 101.8172,-198.36879 0,-252.10745 -18.5373,-9.78386 -25.4876,-11.01023 -62.4158,-11.01307 -39.8671,-0.003 -42.6532,0.60109 -68.5669,14.86869 -49.942,27.49725 -72.7503,69.90529 -69.8002,129.78173 1.6148,32.77455 6.8557,50.15743 22.2109,73.66883 6.8251,10.4503 6.3778,11.35707 -50.2306,101.81135 -31.4143,50.19694 -58.5736,92.89579 -60.3537,94.88639 -1.8062,2.01989 -11.9723,0.64261 -23.0052,-3.11668 -39.72502,-13.53568 -92.08065,-6.95339 -126.7624,15.93692 l -14.97388,9.88293 -35.84208,-36.01682 -35.84204,-36.01681 6.44802,-20.77783 c 9.14096,-29.45527 5.95904,-73.09652 -7.4397,-102.03864 -26.53013,-57.30685 -89.4704,-89.65574 -152.12565,-78.18672 -59.75303,10.93775 -101.70919,53.44826 -112.7289,114.21828 -18.50879,102.06986 78.8852,187.14204 180.44658,157.61733 l 24.27921,-7.05813 43.01975,43.01973 c 40.21859,40.21856 42.8506,43.86539 40.42222,56.00738 -2.52251,12.61255 -3.75497,13.25476 -42.67711,22.23867 -62.17166,14.35025 -130.53752,39.09331 -189.67989,68.64911 -147.90032,73.91175 -244.6193,179.73208 -281.27967,307.74818 -13.54168,47.287 -13.51231,134.6915 0.0613,182.4088 54.49362,191.5694 258.80998,340.9695 528.47449,386.4309 85.34159,14.3874 203.92515,16.9254 285.40515,6.1086 z"
   id="path388" /></svg>
